<svg xmlns="http://www.w3.org/2000/svg" viewBox="59 5 372 36"><path d="M90.785 8.062c0 11.935-1.155 18.538-4.139 23.111-2.387 4.061-9.029 7.917-16.149 9.428l-3.501-5.689c13.047-2.903 16.587-7.358 16.708-20.883H65.762v10.223H59V8.062h31.785zm23.13 9.745c-4.813-1.988-9.628-3.58-14.202-4.615l2.428-5.926c4.852.794 10.302 2.465 14.241 4.414l-2.467 6.127zm-12.888 15.434c16.905-1.392 22.873-6.483 26.135-22.355l5.807 3.937c-3.819 17.147-11.297 23.231-30.551 24.983l-1.391-6.565zm56.766-11.656v5.572h-13.286v-5.572h13.286zm14.426 3.224c-1.232-5.131-2.705-9.428-4.853-14.082l6.126-2.825c2.267 4.615 3.819 9.071 5.171 14.52l-6.444 2.387zm2.746 9.944c14.52-4.177 18.298-9.544 19.889-28.202l6.802 1.872c-2.187 19.809-7.558 27.327-22.913 32.02l-3.778-5.69zm7.558-11.931c-1.075-4.696-2.069-7.68-4.575-14.124l6.245-2.504c2.187 4.654 3.54 8.711 4.853 14.28l-6.523 2.348zm55.182-3.383v6.564h-30.794v-6.564h30.794zm24.181 2.146v5.572H248.6v-5.572h13.286zm36.981-13.601l3.821 3.538c-1.434 4.139-3.821 8.393-7.084 12.85 4.019 3.142 8.118 6.882 11.579 10.502l-4.813 5.131c-2.945-3.418-6.804-7.316-10.741-10.819-4.418 4.735-9.947 8.595-15.713 11.02l-3.821-5.89c7.242-2.743 14.004-7.754 18.34-13.563 1.949-2.546 3.62-5.29 4.096-6.804h-19.092V7.984h23.428zm27.872 14.838c-3.541 2.147-7.479 3.976-11.179 5.17l-3.778-5.808c10.223-3.302 18.457-8.712 26.056-17.144l5.53 3.701c-2.705 3.1-6.246 6.483-9.587 9.149v22.475h-7.041V22.822zm28.187 5.25c-1.035-4.375-2.151-7.638-4.1-12.013l5.409-2.507c1.949 3.976 3.263 7.557 4.456 12.331l-5.765 2.189zm2.027 7.677c12.214-3.541 15.198-7.797 16.469-23.312l6.088 1.67c-1.91 16.748-6.246 22.754-19.174 26.695l-3.383-5.053zm6.483-9.347c-.914-4.1-1.709-6.525-3.856-12.017l5.487-2.228c1.91 3.98 3.026 7.242 4.177 12.133l-5.808 2.112zm40.118-12.613c-2.189.24-5.371.438-9.629.678l-2.026-5.611c11.296-.554 17.185-1.392 24.266-3.46l3.778 5.053c-2.903.914-6.363 1.752-9.665 2.348v5.968H424v5.964h-13.923c-.756 7.797-4.732 12.73-13.047 16.233l-4.375-5.452c6.959-2.743 10.184-6.007 10.66-10.78h-14.121v-5.964h14.361l-.001-4.977z" fill="#fff"/></svg>
