<svg xmlns="http://www.w3.org/2000/svg" viewBox="-202 -54 894 154"><path d="M162.982-48.685h35.768V94.399h-35.768V-48.685zm447.421 54.4h-59.417v-54.4h-33.6V94.399h33.6V39.337h59.417v55.062h33.618V-48.685h-33.618v54.4zm-388.685-20.06h44.115V94.399h34.747V-14.345h43.113v-34.34H221.718v34.34zm-289.746 66.01c0-22.216-11.553-36.542-65.236-45.975-16.13-2.833-30.448-5.201-31.534-13.392-.519-3.955 2.24-12.862 31.013-12.862 21.514 0 43.588 10.336 43.588 10.336l11.754-28.62s-26.349-11.783-56.749-11.783c-29.707 0-64.044 14.328-64.044 44.027 0 24.281 17.513 35.515 57.083 42.32 28.867 4.965 41.072 7.498 40.728 16.86-.365 9.876-12.574 15.253-34.272 15.253-30.602 0-50.208-13.944-50.208-13.944L-201.5 82.03s26.724 16.158 63.822 16.158c50.608 0 69.65-20.05 69.65-46.523zm500.063 11.787c-22.784 0-41.26-18.111-41.26-40.453 0-22.34 18.475-40.449 41.26-40.449 16.36 0 30.499 9.337 37.17 22.871l26.498-23.036c-13.494-21.378-37.327-35.583-64.474-35.583-42.087 0-76.204 34.116-76.204 76.198 0 42.085 34.118 76.198 76.204 76.198 27.147 0 50.979-14.198 64.474-35.581l-26.498-23.035c-6.671 13.532-20.81 22.87-37.17 22.87zM106.145-48.685L81.324 44.589 54.09-48.685H25.805L-1.273 44.212l-24.715-92.897h-35.336L-20.833 94.4h36.984l23.822-84.167L63.634 94.4h37.13L141.47-48.685h-35.325zM656.059 83.959h-4.182v-2.245h10.901v2.245h-4.166V94.4h-2.553V83.959zm9.067 10.44V81.714h3.449l3.258 9.102 3.201-9.102h3.466v12.685h-2.368l.004-10.166-3.48 10.166h-1.678l-3.496-10.166-.004 10.166h-2.352z" fill="#fff"/></svg>
