<svg xmlns="http://www.w3.org/2000/svg" viewBox="15 0 766 660"><style>.st0{fill:#fff}</style><path d="M460.435 213.991C462.993 98.394 371.358 2.611 255.761.052 140.165-2.506 44.381 89.129 41.822 204.726s89.077 211.38 204.674 213.939c34.807.77 67.811-7.01 97.021-21.402l63.332 57.855-24.775-82.419c46.582-37.383 76.936-94.324 78.361-158.708z" fill="#14afff"/><path class="st0" d="M162.917 71.859l69.498-30.363 129.07 294.854-69.572 30.396-97.238-222.286-41.119 67.737-31.675-72.738 41.036-67.6z"/><path d="M588.635 245.775c-53.338-17.723-110.944 11.148-128.668 64.485-11.873 35.731-2.813 73.359 20.482 99.648l-27.297 54.87 48.87-36.487a101.95 101.95 0 0 0 22.431 10.637c53.338 17.724 110.944-11.148 128.668-64.485 17.723-53.338-11.148-110.944-64.486-128.668z" fill="#ff3c28"/><path class="st0" d="M580.921 403.643l-19.424 23.902-87.258-70.91 83.549-12.196c11.952-1.763 25.956-6.641 34.029-16.575 5.617-6.911 6.572-18.089-.915-24.173-7.632-6.202-16.605-3.692-22.573 3.651a33.623 33.623 0 0 0-3.312 4.959l-31.102-25.275c21.107-24.209 50.635-28.184 76.266-7.355 22.75 18.488 29.732 49.026 10.543 72.639-12.638 15.551-26.489 19.357-45.766 20.426l-29.602 2.005 35.565 28.902z"/><g class="st0"><path class="st0" d="M332.378 469.139h31.082v124.336h-31.082z"/><path d="M721.173 516.411h-51.632v-47.272h-29.198v124.336h29.198v-47.847h51.632v47.847h29.212V469.139h-29.212zm-337.756-17.432h38.334v94.496h30.194v-94.496h37.465v-29.84H383.417zm-251.78 57.361c0-19.305-10.039-31.754-56.687-39.951-14.017-2.462-26.459-4.519-27.402-11.638-.451-3.436 1.946-11.176 26.948-11.176 18.695 0 37.877 8.981 37.877 8.981l10.214-24.87s-22.896-10.239-49.313-10.239c-25.815 0-55.652 12.451-55.652 38.258 0 21.1 15.218 30.861 49.604 36.775 25.085 4.315 35.691 6.516 35.391 14.65-.317 8.583-10.926 13.255-29.781 13.255-26.592 0-43.629-12.117-43.629-12.117l-13.552 24.458s23.223 14.04 55.46 14.04c43.975.001 60.522-17.422 60.522-40.426zm434.539 10.242c-19.799 0-35.853-15.737-35.853-35.152 0-19.413 16.055-35.149 35.853-35.149 14.216 0 26.503 8.113 32.3 19.874l23.026-20.018c-11.727-18.577-32.436-30.921-56.026-30.921-36.572 0-66.22 29.646-66.22 66.213 0 36.57 29.648 66.214 66.22 66.214 23.59 0 44.299-12.338 56.026-30.919l-23.026-20.017c-5.797 11.76-18.084 19.875-32.3 19.875zm-283.189-97.443l-21.569 81.052-23.664-81.052h-24.58l-23.529 80.725-21.477-80.725h-30.706l35.185 124.336h32.138l20.702-73.139 20.56 73.139h32.265l35.373-124.336zm477.859 115.264h-3.634v-1.951h9.473v1.951h-3.62v9.072h-2.218v-9.072zm7.879 9.072v-11.023h2.997l2.831 7.91 2.782-7.91h3.011v11.023h-2.058l.003-8.833-3.024 8.833h-1.459l-3.038-8.833-.003 8.833h-2.042z"/></g><path d="M198.933 622.393c0 13.643-1.32 21.191-4.731 26.418-2.729 4.642-10.321 9.049-18.46 10.777l-4.002-6.503c14.914-3.318 18.961-8.412 19.098-23.871h-20.509V640.9h-7.73v-18.507h36.334zm25.366 11.141c-5.502-2.272-11.005-4.093-16.234-5.276l2.775-6.773c5.546.908 11.776 2.817 16.279 5.045l-2.82 7.004zm-14.732 17.643c19.324-1.59 26.146-7.411 29.875-25.554l6.638 4.501c-4.365 19.601-12.914 26.555-34.923 28.557l-1.59-7.504zm69.29-13.325v6.369H263.67v-6.369h15.187zm22.821 3.686c-1.409-5.865-3.092-10.777-5.548-16.097l7.003-3.229c2.591 5.276 4.365 10.369 5.911 16.598l-7.366 2.728zm3.139 11.366c16.598-4.775 20.916-10.91 22.735-32.238l7.776 2.139c-2.501 22.644-8.64 31.237-26.192 36.602l-4.319-6.503zm8.64-13.639c-1.229-5.368-2.365-8.779-5.229-16.145l7.138-2.862c2.501 5.32 4.046 9.958 5.548 16.323l-7.457 2.684zm63.615-3.867v7.504h-35.201v-7.504h35.201zm33.544 2.454v6.369h-15.187v-6.369h15.187zm47.102-15.548l4.367 4.044c-1.639 4.731-4.367 9.594-8.097 14.688 4.593 3.592 9.28 7.867 13.235 12.004l-5.502 5.865c-3.366-3.907-7.778-8.363-12.279-12.367-5.049 5.413-11.37 9.824-17.962 12.597l-4.367-6.733c8.279-3.136 16.008-8.864 20.965-15.504 2.228-2.91 4.137-6.046 4.682-7.778h-21.825v-6.817h26.783zm33.47 16.961c-4.048 2.454-8.549 4.545-12.779 5.909l-4.319-6.64c11.685-3.774 21.098-9.958 29.784-19.597l6.321 4.23c-3.092 3.544-7.14 7.411-10.959 10.458v25.691h-8.049v-20.051zm32.864 6.002c-1.183-5.001-2.458-8.731-4.686-13.732l6.184-2.866c2.228 4.545 3.73 8.638 5.094 14.095l-6.592 2.503zm2.316 8.775c13.962-4.048 17.372-8.912 18.826-26.648l6.959 1.909c-2.184 19.144-7.14 26.01-21.917 30.515l-3.868-5.776zm7.411-10.684c-1.045-4.686-1.954-7.459-4.408-13.736l6.272-2.547c2.184 4.549 3.459 8.279 4.775 13.869l-6.639 2.414zm46.289-14.418c-2.503.274-6.139.5-11.007.775l-2.317-6.414c12.912-.634 19.645-1.59 27.738-3.956l4.319 5.776c-3.318 1.045-7.273 2.002-11.047 2.684v6.821h15.685v6.817h-15.915c-.864 8.912-5.409 14.551-14.914 18.555l-5.001-6.232c7.956-3.136 11.641-6.866 12.186-12.323h-16.141v-6.817h16.416v-5.686z" class="st0"/></svg>
